<svg width="166" height="108" viewBox="0 0 166 108" fill="none" xmlns="http://www.w3.org/2000/svg">
<path fill-rule="evenodd" clip-rule="evenodd" d="M55.9185 22.7112C51.893 26.7367 51.893 33.2633 55.9185 37.2889L75.6105 56.9809C79.636 61.0064 86.1627 61.0064 90.1882 56.9809L109.88 37.2888C113.906 33.2633 113.906 26.7367 109.88 22.7111L107.134 19.9646L82.4487 44.2837L66.4531 29.0651L73.946 21.6696L82.3223 29.6228L99.6899 12.5209L90.1882 3.01913C86.1627 -1.00638 79.636 -1.00638 75.6105 3.01914L55.9185 22.7112Z" fill="#04C147"/>
<path d="M153.175 105.52V73.6H160.855V105.52H153.175ZM148.663 86.752V80.032H165.799V86.752H148.663Z" fill="white"/>
<path d="M135.082 106C132.266 106 129.818 105.44 127.738 104.32C125.658 103.168 124.042 101.616 122.89 99.664C121.738 97.68 121.162 95.424 121.162 92.896C121.162 90.944 121.482 89.152 122.122 87.52C122.762 85.888 123.658 84.48 124.81 83.296C125.962 82.08 127.322 81.152 128.89 80.512C130.49 79.84 132.234 79.504 134.122 79.504C135.914 79.504 137.546 79.824 139.018 80.464C140.522 81.104 141.818 82 142.906 83.152C143.994 84.304 144.826 85.664 145.402 87.232C145.978 88.8 146.234 90.512 146.17 92.368L146.122 94.432H125.818L124.714 90.112H139.882L139.066 91.024V90.064C139.002 89.264 138.746 88.56 138.298 87.952C137.882 87.312 137.322 86.816 136.618 86.464C135.914 86.112 135.114 85.936 134.218 85.936C132.97 85.936 131.898 86.192 131.002 86.704C130.138 87.184 129.482 87.904 129.034 88.864C128.586 89.792 128.362 90.944 128.362 92.32C128.362 93.728 128.65 94.96 129.226 96.016C129.834 97.04 130.698 97.84 131.818 98.416C132.97 98.992 134.33 99.28 135.898 99.28C136.986 99.28 137.946 99.12 138.778 98.8C139.642 98.48 140.57 97.936 141.562 97.168L145.162 102.256C144.17 103.12 143.114 103.824 141.994 104.368C140.874 104.912 139.722 105.312 138.538 105.568C137.386 105.856 136.234 106 135.082 106Z" fill="white"/>
<path d="M92.469 105.52V70H100.005V85.216L98.469 85.792C98.821 84.64 99.445 83.6 100.341 82.672C101.269 81.712 102.373 80.944 103.653 80.368C104.933 79.792 106.277 79.504 107.685 79.504C109.605 79.504 111.221 79.904 112.533 80.704C113.845 81.472 114.837 82.64 115.509 84.208C116.181 85.744 116.517 87.632 116.517 89.872V105.52H108.789V90.496C108.789 89.472 108.645 88.624 108.357 87.952C108.069 87.28 107.621 86.784 107.013 86.464C106.437 86.112 105.717 85.952 104.853 85.984C104.181 85.984 103.557 86.096 102.981 86.32C102.405 86.512 101.909 86.816 101.493 87.232C101.077 87.616 100.741 88.064 100.485 88.576C100.261 89.088 100.149 89.648 100.149 90.256V105.52H96.357C95.461 105.52 94.693 105.52 94.053 105.52C93.413 105.52 92.885 105.52 92.469 105.52Z" fill="white"/>
<path d="M77.4967 106C75.0327 106 72.8247 105.424 70.8727 104.272C68.9207 103.12 67.3687 101.552 66.2167 99.568C65.0967 97.552 64.5367 95.28 64.5367 92.752C64.5367 90.224 65.0967 87.968 66.2167 85.984C67.3687 83.968 68.9207 82.384 70.8727 81.232C72.8247 80.08 75.0327 79.504 77.4967 79.504C79.7687 79.504 81.8487 79.904 83.7367 80.704C85.6567 81.504 87.1767 82.624 88.2967 84.064L84.1207 89.056C83.6727 88.544 83.1447 88.064 82.5367 87.616C81.9287 87.168 81.2567 86.816 80.5207 86.56C79.7847 86.304 79.0167 86.176 78.2167 86.176C77.0007 86.176 75.9287 86.464 75.0007 87.04C74.0727 87.584 73.3527 88.352 72.8407 89.344C72.3287 90.336 72.0727 91.472 72.0727 92.752C72.0727 93.968 72.3287 95.072 72.8407 96.064C73.3847 97.056 74.1207 97.84 75.0487 98.416C75.9767 98.992 77.0327 99.28 78.2167 99.28C79.0487 99.28 79.8167 99.184 80.5207 98.992C81.2247 98.768 81.8647 98.448 82.4407 98.032C83.0487 97.616 83.6087 97.104 84.1207 96.496L88.2487 101.536C87.1607 102.912 85.6407 104 83.6887 104.8C81.7687 105.6 79.7047 106 77.4967 106Z" fill="white"/>
<path d="M44.0801 105.952C41.9361 105.952 40.0161 105.392 38.3201 104.272C36.6561 103.12 35.3281 101.552 34.3361 99.568C33.3441 97.552 32.8481 95.28 32.8481 92.752C32.8481 90.16 33.3441 87.872 34.3361 85.888C35.3281 83.904 36.6881 82.352 38.4161 81.232C40.1441 80.08 42.1121 79.504 44.3201 79.504C45.5361 79.504 46.6401 79.68 47.6321 80.032C48.6561 80.384 49.5521 80.88 50.3201 81.52C51.0881 82.128 51.7441 82.848 52.2881 83.68C52.8321 84.48 53.2321 85.344 53.4881 86.272L51.9041 86.08V80.032H59.5361V105.52H51.7601V99.376L53.4881 99.328C53.2321 100.224 52.8161 101.072 52.2401 101.872C51.6641 102.672 50.9601 103.376 50.1281 103.984C49.2961 104.592 48.3681 105.072 47.3441 105.424C46.3201 105.776 45.2321 105.952 44.0801 105.952ZM46.1921 99.472C47.3761 99.472 48.4001 99.2 49.2641 98.656C50.1281 98.112 50.8001 97.344 51.2801 96.352C51.7601 95.328 52.0001 94.128 52.0001 92.752C52.0001 91.376 51.7601 90.192 51.2801 89.2C50.8001 88.176 50.1281 87.392 49.2641 86.848C48.4001 86.272 47.3761 85.984 46.1921 85.984C45.0401 85.984 44.0321 86.272 43.1681 86.848C42.3361 87.392 41.6801 88.176 41.2001 89.2C40.7201 90.192 40.4801 91.376 40.4801 92.752C40.4801 94.128 40.7201 95.328 41.2001 96.352C41.6801 97.344 42.3361 98.112 43.1681 98.656C44.0321 99.2 45.0401 99.472 46.1921 99.472Z" fill="white"/>
<path d="M17.424 106C14.896 106 12.56 105.584 10.416 104.752C8.304 103.888 6.464 102.688 4.896 101.152C3.328 99.584 2.112 97.744 1.248 95.632C0.416 93.488 0 91.136 0 88.576C0 86.08 0.448 83.776 1.344 81.664C2.24 79.552 3.472 77.728 5.04 76.192C6.64 74.624 8.512 73.408 10.656 72.544C12.832 71.68 15.2 71.248 17.76 71.248C19.36 71.248 20.928 71.456 22.464 71.872C24 72.288 25.424 72.912 26.736 73.744C28.08 74.544 29.232 75.504 30.192 76.624L25.2 82.336C24.528 81.632 23.808 81.024 23.04 80.512C22.304 79.968 21.488 79.552 20.592 79.264C19.696 78.976 18.736 78.832 17.712 78.832C16.432 78.832 15.216 79.072 14.064 79.552C12.944 80 11.952 80.656 11.088 81.52C10.256 82.352 9.6 83.376 9.12 84.592C8.64 85.808 8.4 87.168 8.4 88.672C8.4 90.144 8.64 91.488 9.12 92.704C9.6 93.888 10.272 94.912 11.136 95.776C12 96.64 13.04 97.296 14.256 97.744C15.504 98.192 16.88 98.416 18.384 98.416C19.408 98.416 20.384 98.272 21.312 97.984C22.24 97.696 23.088 97.312 23.856 96.832C24.656 96.32 25.36 95.744 25.968 95.104L29.904 101.344C29.104 102.24 28.032 103.04 26.688 103.744C25.376 104.448 23.904 105.008 22.272 105.424C20.672 105.808 19.056 106 17.424 106Z" fill="white"/>
</svg>
